<?xml version="1.0" encoding="utf-8"?>
<!-- Generator: Adobe Illustrator 20.1.0, SVG Export Plug-In . SVG Version: 6.00 Build 0)  -->
<svg version="1.1" id="katman_1" xmlns="http://www.w3.org/2000/svg" xmlns:xlink="http://www.w3.org/1999/xlink" x="0px" y="0px"
	 viewBox="0 0 1578.2 468" style="enable-background:new 0 0 1578.2 468;" xml:space="preserve">
<style type="text/css">
	.st0{fill:url(#SVGID_1_);}
	.st1{fill:url(#SVGID_2_);}
	.st2{fill:url(#SVGID_3_);}
	.st3{fill:url(#SVGID_4_);}
	.st4{fill:url(#SVGID_5_);}
	.st5{fill:url(#SVGID_6_);}
	.st6{fill:url(#SVGID_7_);}
	.st7{fill:url(#SVGID_8_);}
	.st8{fill:url(#SVGID_9_);}
	.st9{fill:url(#SVGID_10_);}
	.st10{fill:url(#SVGID_11_);}
	.st11{fill:url(#SVGID_12_);}
	.st12{fill:url(#SVGID_13_);}
	.st13{fill:url(#SVGID_14_);}
	.st14{fill:url(#SVGID_15_);}
	.st15{fill:url(#SVGID_16_);}
	.st16{fill:url(#SVGID_17_);}
	.st17{fill:url(#SVGID_18_);}
	.st18{fill:url(#SVGID_19_);}
	.st19{fill:url(#SVGID_20_);}
	.st20{fill:url(#SVGID_21_);}
	.st21{fill:url(#SVGID_22_);}
	.st22{fill:url(#SVGID_23_);}
	.st23{fill:url(#SVGID_24_);}
</style>
<g>
	<g>
		<linearGradient id="SVGID_1_" gradientUnits="userSpaceOnUse" x1="820.9169" y1="117.586" x2="913.9227" y2="117.586">
			<stop  offset="0" style="stop-color:#3C0055"/>
			<stop  offset="1" style="stop-color:#3C0055"/>
		</linearGradient>
		<path class="st0" d="M913.9,107.2l-16.8,10.5c-9.4-2.6-18.3-3.3-28-1.5c-10.4,1.9-19.5,6.4-26.3,13.5l-10.2-1.5l-0.3,8.9l0.5,1.3
			l-1.7,3.1l-1.7-3.1l0.5-0.9l0,0l0.2-9.7l-9.2-1.5l42-32.6L913.9,107.2z"/>
	</g>
	<g>
		<g>
			<linearGradient id="SVGID_2_" gradientUnits="userSpaceOnUse" x1="726.4578" y1="111.0033" x2="749.8926" y2="111.0033">
				<stop  offset="0" style="stop-color:#3C0055"/>
				<stop  offset="1" style="stop-color:#3C0055"/>
			</linearGradient>
			<circle class="st1" cx="738.2" cy="111" r="11.7"/>
		</g>
		<g>
			<linearGradient id="SVGID_3_" gradientUnits="userSpaceOnUse" x1="760.1182" y1="103.8116" x2="783.553" y2="103.8116">
				<stop  offset="0" style="stop-color:#3C0055"/>
				<stop  offset="1" style="stop-color:#3C0055"/>
			</linearGradient>
			<circle class="st2" cx="771.8" cy="103.8" r="11.7"/>
		</g>
		<g>
			<linearGradient id="SVGID_4_" gradientUnits="userSpaceOnUse" x1="718.9233" y1="173.9356" x2="823.928" y2="173.9356">
				<stop  offset="0" style="stop-color:#3C0055"/>
				<stop  offset="1" style="stop-color:#3C0055"/>
			</linearGradient>
			<path class="st3" d="M808.7,136.7c-10.2-10.1-22.5-15.2-37.2-15.2s-27.1,5.1-37.3,15.2c-10.2,10.1-15.3,22.5-15.3,37.1
				c0,14.8,5.1,27.2,15.2,37.3c10.1,10.1,22.6,15.2,37.4,15.2c14.6,0,27-5.1,37.2-15.3c10.1-10.2,15.2-22.6,15.2-37.2
				C823.9,159.2,818.9,146.8,808.7,136.7z M789.9,192.2c-5,5.1-11.2,7.6-18.3,7.6c-7.2,0-13.4-2.5-18.4-7.6
				c-5.1-5.1-7.7-11.2-7.7-18.4c0-7.2,2.5-13.3,7.7-18.3c5.1-5,11.3-7.5,18.4-7.5c7.1,0,13.2,2.5,18.2,7.6
				c5.1,5.1,7.7,11.1,7.7,18.2C797.4,181,794.9,187.1,789.9,192.2z"/>
		</g>
		<g>
			<linearGradient id="SVGID_5_" gradientUnits="userSpaceOnUse" x1="939.7623" y1="172.5099" x2="992.4495" y2="172.5099">
				<stop  offset="0" style="stop-color:#3C0055"/>
				<stop  offset="1" style="stop-color:#3C0055"/>
			</linearGradient>
			<path class="st4" d="M955.1,136.7c-10.2,10.1-15.4,22.5-15.4,37.1v49.7h26.3v-49.7c0-7.2,2.7-13.3,7.8-18.3
				c5.1-5,11.2-7.5,18.6-7.5v-26.4C977.7,121.5,965.3,126.6,955.1,136.7z"/>
		</g>
		<g>
			<linearGradient id="SVGID_6_" gradientUnits="userSpaceOnUse" x1="996.4421" y1="173.9888" x2="1101.4469" y2="173.9888">
				<stop  offset="0" style="stop-color:#3C0055"/>
				<stop  offset="1" style="stop-color:#3C0055"/>
			</linearGradient>
			<path class="st5" d="M1101.4,174.2c0-14.6-5.1-27.2-15.2-37.3c-10.1-10.1-22.5-15.3-37.2-15.3c-14.7,0-27.1,5-37.3,15.1
				c-10.2,10.1-15.3,22.5-15.3,37.1c0,14.8,5.1,27.2,15.2,37.3c10.1,10.1,22.6,15.2,37.4,15.2c13.9,0,25.8-4.8,35.9-14.3l-16.1-21.4
				c-5.2,6.2-11.9,9.2-19.8,9.2c-5.8,0-10.9-1.3-15.5-4.6c-4.6-3.3-7.7-8.6-9.4-12.9h76.7C1101.2,179.2,1101.4,176.8,1101.4,174.2z
				 M1026.1,162.4c4.8-10.5,12.5-13.7,23-13.7c10.3,0,17.9,3.2,22.8,13.7H1026.1z"/>
		</g>
		<g>
			<linearGradient id="SVGID_7_" gradientUnits="userSpaceOnUse" x1="1109.4149" y1="172.5099" x2="1214.7892" y2="172.5099">
				<stop  offset="0" style="stop-color:#3C0055"/>
				<stop  offset="1" style="stop-color:#3C0055"/>
			</linearGradient>
			<path class="st6" d="M1199.4,136.7c-10.2-10.1-22.7-15.2-37.3-15.2s-27.1,5.1-37.3,15.2c-10.2,10.1-15.4,22.5-15.4,37.1v49.7
				h27.4v-49.6c0-7.2,2.1-13.3,7.3-18.3c5.1-5,11.1-7.5,18.3-7.5c7.1,0,12.7,2.5,17.8,7.6c5.1,5.1,7.2,11.2,7.2,18.2v49.6h27.4
				v-49.7C1214.8,159.2,1209.6,146.8,1199.4,136.7z"/>
		</g>
		<g>
			<linearGradient id="SVGID_8_" gradientUnits="userSpaceOnUse" x1="1221.0587" y1="173.9356" x2="1309.9717" y2="173.9356">
				<stop  offset="0" style="stop-color:#3C0055"/>
				<stop  offset="1" style="stop-color:#3C0055"/>
			</linearGradient>
			<path class="st7" d="M1293.1,190.8c-5.1,6-11.6,9-19.4,9c-7.2,0-13.4-2.5-18.4-7.6c-5.1-5.1-7.7-11.2-7.7-18.4
				c0-7.2,2.5-13.3,7.7-18.3c5.1-5,11.3-7.5,18.4-7.5c7.6,0,13.9,2.7,19,8.2l15.9-21.3c-10-9-21.6-13.5-34.9-13.5
				c-14.7,0-27.1,5.1-37.3,15.2c-10.2,10.1-15.3,22.5-15.3,37.1c0,14.8,5.1,27.2,15.2,37.3c10.1,10.1,22.6,15.2,37.4,15.2
				c14,0,26.1-4.9,36.3-14.7L1293.1,190.8z"/>
		</g>
		<g>
			<linearGradient id="SVGID_9_" gradientUnits="userSpaceOnUse" x1="1315.5793" y1="99.0604" x2="1342.4674" y2="99.0604">
				<stop  offset="0" style="stop-color:#3C0055"/>
				<stop  offset="1" style="stop-color:#3C0055"/>
			</linearGradient>
			<path class="st8" d="M1342.5,99c0,3.8-1.3,7-3.8,9.6c-2.6,2.6-5.7,3.9-9.5,3.9c-3.8,0-7-1.3-9.6-3.9c-2.6-2.6-3.9-5.8-3.9-9.6
				c0-3.8,1.3-7,3.9-9.5c2.6-2.6,5.8-3.8,9.6-3.8c3.7,0,6.8,1.3,9.4,3.9C1341.2,92.2,1342.5,95.3,1342.5,99z"/>
		</g>
		<g>
			<linearGradient id="SVGID_10_" gradientUnits="userSpaceOnUse" x1="1315.9719" y1="172.4634" x2="1342.4674" y2="172.4634">
				<stop  offset="0" style="stop-color:#3C0055"/>
				<stop  offset="1" style="stop-color:#3C0055"/>
			</linearGradient>
			<rect x="1316" y="121.5" class="st9" width="26.5" height="101.9"/>
		</g>
		<g>
			<g>
				<linearGradient id="SVGID_11_" gradientUnits="userSpaceOnUse" x1="720.1567" y1="323.3909" x2="825.1588" y2="323.3909">
					<stop  offset="0" style="stop-color:#3C0055"/>
					<stop  offset="1" style="stop-color:#3C0055"/>
				</linearGradient>
				<path class="st10" d="M825.2,341.3c0,14.6-5.1,27-15.2,37.2c-10.1,10.2-22.5,15.3-37.2,15.3c-14.8,0-27.2-5.1-37.4-15.2
					c-10.1-10.1-15.2-22.6-15.2-37.3V253h26.5v42.6c8-4.4,16.7-6.7,26.1-6.7c14.7,0,27.1,5.1,37.2,15.2
					C820.1,314.2,825.2,326.6,825.2,341.3z M798.7,341.3c0-7-2.6-13.1-7.7-18.2c-5.1-5.1-11.2-7.6-18.3-7.6
					c-7.2,0-13.3,2.5-18.4,7.5s-7.7,11.1-7.7,18.3c0,7.2,2.6,13.3,7.7,18.4c5.1,5.1,11.3,7.6,18.4,7.6c7.2,0,13.3-2.5,18.4-7.6
					C796.1,354.5,798.7,348.4,798.7,341.3z"/>
			</g>
			<g>
				<linearGradient id="SVGID_12_" gradientUnits="userSpaceOnUse" x1="831.7511" y1="341.4475" x2="957.9494" y2="341.4475">
					<stop  offset="0" style="stop-color:#3C0055"/>
					<stop  offset="1" style="stop-color:#3C0055"/>
				</linearGradient>
				<path class="st11" d="M957.9,390.8h-28.2l-5.6-15.3c-10.5,12.3-23.8,18.5-40,18.5c-14.7,0-27.1-5.1-37.2-15.3
					c-10.1-10.2-15.2-22.6-15.2-37.1c0-11.1,3.1-21.2,9.4-30.1c6.3-9,14.7-15.3,25.1-19.1c6.1-2.2,12.2-3.3,18.1-3.3
					c11.1,0,21.2,3.2,30.1,9.5c9,6.3,15.3,14.8,19.1,25.2L957.9,390.8z M910.3,341.4c0-9.2-3.7-16.4-11.2-21.5
					c-4.3-3-9.3-4.5-14.9-4.5c-9.2,0-16.2,3.7-21.2,11c-3.1,4.6-4.7,9.6-4.7,15c0,9.1,3.7,16.2,11.2,21.3c4.6,3.2,9.5,4.7,14.7,4.7
					c7.2,0,13.3-2.5,18.4-7.6C907.7,354.8,910.3,348.7,910.3,341.4z"/>
			</g>
			<g>
				<linearGradient id="SVGID_13_" gradientUnits="userSpaceOnUse" x1="964.5417" y1="321.9191" x2="1060.3185" y2="321.9191">
					<stop  offset="0" style="stop-color:#3C0055"/>
					<stop  offset="1" style="stop-color:#3C0055"/>
				</linearGradient>
				<path class="st12" d="M1060.3,390.8h-26.5v-13.1c-0.1-7.3-2.7-13.5-7.6-18.4c-4.9-5-11.1-7.5-18.4-7.5H991v39.1h-26.5V253H991
					v72.2h16.8c7.4,0,13.5-2.5,18.4-7.6c4.9-5,7.5-11.2,7.6-18.5v-10.2h26.5v10.2c0,15.7-5.9,28.8-17.7,39.3
					c11.8,10.5,17.7,23.6,17.7,39.3V390.8z"/>
			</g>
			<g>
				<linearGradient id="SVGID_14_" gradientUnits="userSpaceOnUse" x1="1066.519" y1="340.7666" x2="1146.3998" y2="340.7666">
					<stop  offset="0" style="stop-color:#3C0055"/>
					<stop  offset="1" style="stop-color:#3C0055"/>
				</linearGradient>
				<path class="st13" d="M1146.4,360.7c0,6.3-2.1,12-6.3,17.1c-8.4,10.2-20.3,15.1-35.7,14.8c-6.2-0.1-12.9-1.5-20.1-4.1
					s-13.2-5.9-17.8-9.8l14.7-19c7.1,6.7,14.6,10,22.6,10h0.6c3.3,0,6.2-0.6,8.8-1.8c3.4-1.6,5.1-3.8,5.1-6.7v-0.8
					c-0.4-3-2.4-5.2-6.1-6.5c-1.4-0.3-4.5-0.8-9.2-1.8c-5.9-1.2-10.9-2.6-14.9-4.3c-11.9-5.1-17.9-14.1-17.9-26.9
					c0-12.3,6.1-21.5,18.3-27.7c5.4-2.7,11.2-4.2,17.5-4.3c6.5-0.1,13.3,1,20.4,3.3c8.1,2.7,13.9,6.3,17.3,10.8L1126,319
					c-4.6-4.7-9.6-7.1-14.9-7.1c-8.4,0-12.6,2.8-12.6,8.3v0.4c0,2.6,3.4,4.9,10.2,6.7c0.5,0.1,4.8,1,13,2.6
					c16.5,3.1,24.7,13.2,24.7,30.3V360.7z"/>
			</g>
			<g>
				<linearGradient id="SVGID_15_" gradientUnits="userSpaceOnUse" x1="1153.1902" y1="341.4475" x2="1279.3884" y2="341.4475">
					<stop  offset="0" style="stop-color:#3C0055"/>
					<stop  offset="1" style="stop-color:#3C0055"/>
				</linearGradient>
				<path class="st14" d="M1279.4,390.8h-28.2l-5.6-15.3c-10.5,12.3-23.8,18.5-40,18.5c-14.7,0-27.1-5.1-37.2-15.3
					c-10.1-10.2-15.2-22.6-15.2-37.1c0-11.1,3.1-21.2,9.4-30.1c6.3-9,14.7-15.3,25.1-19.1c6.1-2.2,12.2-3.3,18.1-3.3
					c11.1,0,21.2,3.2,30.1,9.5c9,6.3,15.3,14.8,19.1,25.2L1279.4,390.8z M1231.7,341.4c0-9.2-3.7-16.4-11.2-21.5
					c-4.3-3-9.3-4.5-14.9-4.5c-9.2,0-16.2,3.7-21.2,11c-3.1,4.6-4.7,9.6-4.7,15c0,9.1,3.7,16.2,11.2,21.3c4.6,3.2,9.5,4.7,14.7,4.7
					c7.2,0,13.3-2.5,18.4-7.6C1229.1,354.8,1231.7,348.7,1231.7,341.4z"/>
			</g>
			<g>
				<linearGradient id="SVGID_16_" gradientUnits="userSpaceOnUse" x1="1285.9807" y1="339.8774" x2="1391.1794" y2="339.8774">
					<stop  offset="0" style="stop-color:#3C0055"/>
					<stop  offset="1" style="stop-color:#3C0055"/>
				</linearGradient>
				<path class="st15" d="M1391.2,390.8h-26.5v-49.5c0-7-2.6-13.1-7.7-18.2c-5.1-5.1-11.2-7.6-18.3-7.6c-7.2,0-13.4,2.5-18.5,7.5
					c-5.1,5-7.7,11.1-7.7,18.3v49.5H1286v-49.6c0-14.6,5.1-27,15.3-37.1c10.2-10.1,22.6-15.2,37.3-15.2c14.7,0,27.1,5.1,37.3,15.2
					c10.2,10.1,15.3,22.5,15.3,37.1V390.8z"/>
			</g>
			<g>
				<linearGradient id="SVGID_17_" gradientUnits="userSpaceOnUse" x1="1397.7732" y1="341.4475" x2="1523.9714" y2="341.4475">
					<stop  offset="0" style="stop-color:#3C0055"/>
					<stop  offset="1" style="stop-color:#3C0055"/>
				</linearGradient>
				<path class="st16" d="M1524,390.8h-28.2l-5.6-15.3c-10.5,12.3-23.8,18.5-40,18.5c-14.7,0-27.1-5.1-37.2-15.3
					c-10.1-10.2-15.2-22.6-15.2-37.1c0-11.1,3.1-21.2,9.4-30.1c6.3-9,14.7-15.3,25.1-19.1c6.1-2.2,12.2-3.3,18.1-3.3
					c11.1,0,21.2,3.2,30.1,9.5c9,6.3,15.3,14.8,19.1,25.2L1524,390.8z M1476.3,341.4c0-9.2-3.7-16.4-11.2-21.5
					c-4.3-3-9.3-4.5-14.9-4.5c-9.2,0-16.2,3.7-21.2,11c-3.1,4.6-4.7,9.6-4.7,15c0,9.1,3.7,16.2,11.2,21.3c4.6,3.2,9.5,4.7,14.7,4.7
					c7.2,0,13.3-2.5,18.4-7.6C1473.7,354.8,1476.3,348.7,1476.3,341.4z"/>
			</g>
		</g>
		<g>
			<linearGradient id="SVGID_18_" gradientUnits="userSpaceOnUse" x1="829.2901" y1="200.0302" x2="933.4398" y2="200.0302">
				<stop  offset="0" style="stop-color:#3C0055"/>
				<stop  offset="1" style="stop-color:#3C0055"/>
			</linearGradient>
			<path class="st17" d="M925.7,145.9c-2.7-4.3-5.7-8-9.4-11.2c-3.7-3.2-7.7-6-12.3-8.2c-4-2-9.5-3.3-14.1-4.1c-4.6-0.8-8.2-1-8.2-1
				c-14.6,0-27,5.1-37.1,15.2c-10.2,10.1-15.2,22.5-15.2,37.2c0,9.8,2.2,18.6,6.7,26.4c2.3,3.9,5.1,7.6,8.5,11
				c1.8,1.8,3.7,3.5,5.7,5c2,1.5,4.1,2.9,6.3,4.1c4.6,2.5,9.6,4.3,15,5.2c3.3,0.6,6.7,0.9,10.3,0.9c3.3,0,6.5-0.4,9.8-1.2l3.3-1
				c0,0,5.8-2.3,11.6-5.2l0.2-0.2c0.2,0.6,0.3,1.2,0.5,1.7c0.4,1.8,0.6,3.8,0.6,5.8c0,7.2-2.5,13.3-7.6,18.4
				c-5,5.1-11.2,7.6-18.3,7.6c-7.2,0-13.4-3.4-18.4-7.7h-31.1c2.5,7.4,6.6,13.4,12.2,19c10.1,10.1,22.6,15.2,37.4,15.2
				c14.6,0,26.6-5.1,36.8-15.3c10.1-10.2,14.8-22.6,14.8-37.2v-52.5C933.4,163.7,931.1,154.4,925.7,145.9z M907.1,180.1
				c-1.1,4.5-3.4,8.6-6.8,12.1c-5,5.1-11.2,7.7-18.3,7.7c-7.2,0-13.4-2.5-18.5-7.7c-3.5-3.5-5.8-7.5-6.9-12c-0.5-2-0.7-4.2-0.7-6.4
				c0-7.2,2.6-13.3,7.7-18.3c5.1-5,11.3-7.6,18.5-7.6c7.1,0,13.2,2.6,18.2,7.7c5.1,5.1,7.7,11.2,7.7,18.2
				C907.8,175.9,907.6,178,907.1,180.1z"/>
		</g>
		<linearGradient id="SVGID_19_" gradientUnits="userSpaceOnUse" x1="935.2592" y1="230.2049" x2="935.2592" y2="230.2049">
			<stop  offset="0" style="stop-color:#3C0055"/>
			<stop  offset="1" style="stop-color:#3C0055"/>
		</linearGradient>
		<line class="st18" x1="935.3" y1="232.2" x2="935.3" y2="228.2"/>
	</g>
	<g>
		<linearGradient id="SVGID_20_" gradientUnits="userSpaceOnUse" x1="10.0505" y1="348.9408" x2="692.0505" y2="114.9408">
			<stop  offset="0" style="stop-color:#662D91"/>
			<stop  offset="1" style="stop-color:#3C0055"/>
		</linearGradient>
		<path class="st19" d="M233.9,128.8c-79.1,0-143.3,64.2-143.3,143.3s64.2,143.3,143.3,143.3s143.3-64.2,143.3-143.3
			S313,128.8,233.9,128.8z M233.9,372.2c-55.3,0-100.1-44.8-100.1-100.1c0-55.3,44.8-100.1,100.1-100.1S334,216.8,334,272.1
			C334,327.4,289.2,372.2,233.9,372.2z"/>
		<linearGradient id="SVGID_21_" gradientUnits="userSpaceOnUse" x1="24.3878" y1="389.9201" x2="706.2072" y2="155.9821">
			<stop  offset="0" style="stop-color:#662D91"/>
			<stop  offset="1" style="stop-color:#3C0055"/>
		</linearGradient>
		<path class="st20" d="M537.4,128.8c-39,0-74.1,15.5-100.1,40.7V53.2h-43v218.9c0,79.1,64.1,143.3,143.2,143.3
			s143.3-64.2,143.3-143.3S616.5,128.8,537.4,128.8z M537.4,372.2c-55.3,0-100.1-44.8-100.1-100.1c0-55.3,44.8-100.1,100.1-100.1
			s100.1,44.8,100.1,100.1C637.5,327.4,592.7,372.2,537.4,372.2z"/>
		<linearGradient id="SVGID_22_" gradientUnits="userSpaceOnUse" x1="-44.7557" y1="189.2063" x2="637.2443" y2="-44.7937">
			<stop  offset="0" style="stop-color:#662D91"/>
			<stop  offset="1" style="stop-color:#3C0055"/>
		</linearGradient>
		<path class="st21" d="M89.6,188.2l1.1-27.9l31.9,4.8c21.2-22.2,49.2-38.4,81.5-45c30.8-6.3,61.3-3.1,88.5,7.6l52.6-32.7
			L185.7,52.6L54.2,154.5l28.7,4.8l-0.6,30.3l-0.1,0l-1.7,2.7l5.2,9.6l5.2-9.7L89.6,188.2z M220.8,73.9c9.4,0,17,7.6,17,17
			c0,9.4-7.6,17-17,17c-9.4,0-17-7.6-17-17C203.8,81.6,211.4,73.9,220.8,73.9z M164.3,86.7c9.4,0,17,7.6,17,17c0,9.4-7.6,17-17,17
			c-9.4,0-17-7.6-17-17C147.3,94.4,154.9,86.7,164.3,86.7z"/>
		<linearGradient id="SVGID_23_" gradientUnits="userSpaceOnUse" x1="14.2003" y1="361.0352" x2="696.2003" y2="127.0353">
			<stop  offset="0" style="stop-color:#662D91"/>
			<stop  offset="1" style="stop-color:#3C0055"/>
		</linearGradient>
		<circle class="st22" cx="273.3" cy="272.1" r="45.8"/>
		<linearGradient id="SVGID_24_" gradientUnits="userSpaceOnUse" x1="46.0687" y1="453.9169" x2="728.0687" y2="219.9169">
			<stop  offset="0" style="stop-color:#662D91"/>
			<stop  offset="1" style="stop-color:#3C0055"/>
		</linearGradient>
		<circle class="st23" cx="575.9" cy="272.1" r="45.8"/>
	</g>
</g>
</svg>
