<?xml version="1.0" encoding="utf-8"?>
<!-- Generator: Adobe Illustrator 20.1.0, SVG Export Plug-In . SVG Version: 6.00 Build 0)  -->
<svg version="1.1" id="katman_1" xmlns="http://www.w3.org/2000/svg" xmlns:xlink="http://www.w3.org/1999/xlink" x="0px" y="0px"
	 viewBox="0 0 700 468" style="enable-background:new 0 0 700 468;" xml:space="preserve">
<style type="text/css">
	.st0{fill:url(#SVGID_1_);}
	.st1{fill:url(#SVGID_2_);}
	.st2{fill:url(#SVGID_3_);}
	.st3{fill:url(#SVGID_4_);}
	.st4{fill:url(#SVGID_5_);}
	.st5{fill:url(#SVGID_6_);}
	.st6{fill:url(#SVGID_7_);}
	.st7{fill:url(#SVGID_8_);}
	.st8{fill:url(#SVGID_9_);}
	.st9{fill:url(#SVGID_10_);}
	.st10{fill:url(#SVGID_11_);}
	.st11{fill:url(#SVGID_12_);}
	.st12{fill:url(#SVGID_13_);}
	.st13{fill:url(#SVGID_14_);}
	.st14{fill:url(#SVGID_15_);}
	.st15{fill:url(#SVGID_16_);}
	.st16{fill:url(#SVGID_17_);}
	.st17{fill:url(#SVGID_18_);}
	.st18{fill:url(#SVGID_19_);}
	.st19{fill:url(#SVGID_20_);}
	.st20{fill:url(#SVGID_21_);}
	.st21{fill:url(#SVGID_22_);}
	.st22{fill:url(#SVGID_23_);}
	.st23{fill:url(#SVGID_24_);}
</style>
<g>
	<g>
		<linearGradient id="SVGID_1_" gradientUnits="userSpaceOnUse" x1="820.9169" y1="117.586" x2="913.9227" y2="117.586">
			<stop  offset="0" style="stop-color:#3C0055"/>
			<stop  offset="1" style="stop-color:#3C0055"/>
		</linearGradient>
	</g>

	<g>
		<linearGradient id="SVGID_20_" gradientUnits="userSpaceOnUse" x1="10.0505" y1="348.9408" x2="692.0505" y2="114.9408">
			<stop  offset="0" style="stop-color:#662D91"/>
			<stop  offset="1" style="stop-color:#3C0055"/>
		</linearGradient>
		<path class="st19" d="M233.9,128.8c-79.1,0-143.3,64.2-143.3,143.3s64.2,143.3,143.3,143.3s143.3-64.2,143.3-143.3
			S313,128.8,233.9,128.8z M233.9,372.2c-55.3,0-100.1-44.8-100.1-100.1c0-55.3,44.8-100.1,100.1-100.1S334,216.8,334,272.1
			C334,327.4,289.2,372.2,233.9,372.2z"/>
		<linearGradient id="SVGID_21_" gradientUnits="userSpaceOnUse" x1="24.3878" y1="389.9201" x2="706.2072" y2="155.9821">
			<stop  offset="0" style="stop-color:#662D91"/>
			<stop  offset="1" style="stop-color:#3C0055"/>
		</linearGradient>
		<path class="st20" d="M537.4,128.8c-39,0-74.1,15.5-100.1,40.7V53.2h-43v218.9c0,79.1,64.1,143.3,143.2,143.3
			s143.3-64.2,143.3-143.3S616.5,128.8,537.4,128.8z M537.4,372.2c-55.3,0-100.1-44.8-100.1-100.1c0-55.3,44.8-100.1,100.1-100.1
			s100.1,44.8,100.1,100.1C637.5,327.4,592.7,372.2,537.4,372.2z"/>
		<linearGradient id="SVGID_22_" gradientUnits="userSpaceOnUse" x1="-44.7557" y1="189.2063" x2="637.2443" y2="-44.7937">
			<stop  offset="0" style="stop-color:#662D91"/>
			<stop  offset="1" style="stop-color:#3C0055"/>
		</linearGradient>
		<path class="st21" d="M89.6,188.2l1.1-27.9l31.9,4.8c21.2-22.2,49.2-38.4,81.5-45c30.8-6.3,61.3-3.1,88.5,7.6l52.6-32.7
			L185.7,52.6L54.2,154.5l28.7,4.8l-0.6,30.3l-0.1,0l-1.7,2.7l5.2,9.6l5.2-9.7L89.6,188.2z M220.8,73.9c9.4,0,17,7.6,17,17
			c0,9.4-7.6,17-17,17c-9.4,0-17-7.6-17-17C203.8,81.6,211.4,73.9,220.8,73.9z M164.3,86.7c9.4,0,17,7.6,17,17c0,9.4-7.6,17-17,17
			c-9.4,0-17-7.6-17-17C147.3,94.4,154.9,86.7,164.3,86.7z"/>
		<linearGradient id="SVGID_23_" gradientUnits="userSpaceOnUse" x1="14.2003" y1="361.0352" x2="696.2003" y2="127.0353">
			<stop  offset="0" style="stop-color:#662D91"/>
			<stop  offset="1" style="stop-color:#3C0055"/>
		</linearGradient>
		<circle class="st22" cx="273.3" cy="272.1" r="45.8"/>
		<linearGradient id="SVGID_24_" gradientUnits="userSpaceOnUse" x1="46.0687" y1="453.9169" x2="728.0687" y2="219.9169">
			<stop  offset="0" style="stop-color:#662D91"/>
			<stop  offset="1" style="stop-color:#3C0055"/>
		</linearGradient>
		<circle class="st23" cx="575.9" cy="272.1" r="45.8"/>
	</g>
</g>
</svg>
